<?xml version="1.0" encoding="UTF-8"?>
<svg width="68px" height="50px" viewBox="0 0 68 50" version="1.1"
     xmlns="http://www.w3.org/2000/svg">
    <title>Fill 1</title>
    <g id="页面-1" stroke="none" stroke-width="1" fill="none" fill-rule="evenodd">
        <g id="云智慧-登录页-1" transform="translate(-898.000000, -158.000000)" fill="#00C9C3">
            <g id="Group" transform="translate(-456.000000, -105.000000)">
                <g id="form" transform="translate(1306.000000, 263.000000)">
                    <g id="logo" transform="translate(48.000000, 0.000000)">
                        <path d="M46.8573032,48.6178994 C45.3639157,47.8820463 43.8896043,46.8900474 42.0691977,45.3803266 L42.0092442,45.3386916 C41.8393759,45.225553 41.6794999,45.0925021 41.5350664,44.9386336 L41.4787464,44.8879476 C41.466029,44.8716556 41.4496781,44.8607943 41.4342355,44.8508381 C41.4006252,44.7883856 41.3651981,44.7422251 41.3234123,44.691539 L41.3234123,44.6806777 C41.0009351,44.2389848 40.8310668,43.7212628 40.8310668,43.1763875 C40.8310668,41.7535571 41.9938016,40.5913978 43.4254188,40.5913978 C43.9822597,40.5913978 44.5136659,40.7651787 44.9642256,41.0991637 L44.9978359,41.110025 C47.1434449,42.979979 49.5025248,44.7938163 52.5964894,44.7938163 C59.2358866,44.7938163 62.8194715,39.7786105 62.8194715,35.0566598 C62.8194715,30.367293 59.0787357,25.2995909 53.039782,25.2995909 C49.1718721,25.2995909 46.5711614,27.5759386 44.0540223,29.774447 L43.912314,29.8984468 C43.5026316,30.2541544 43.087499,30.618008 42.6778167,30.9818616 C41.2416575,32.2408675 39.884528,33.4283697 38.899837,34.2293907 C37.1057736,35.6947612 30.9251115,41.0231346 28.2844319,43.3040078 C27.9165353,43.6180804 27.5477304,43.9421093 27.1889177,44.2598023 C23.8342462,47.2086456 20.6685191,50 14.9493174,50 C11.1849635,50 7.41788453,48.4830383 4.61551204,45.8473625 C1.63963771,43.046957 0,39.2500272 0,35.1453604 C0,29.5128706 2.65067194,25.9829478 4.87258543,24.0161471 C7.65769858,21.5488215 11.3212215,20.1359473 14.9266077,20.1359473 C19.4203959,20.1359473 22.1482807,21.6619601 25.344893,24.3030665 L25.3894039,24.3392708 C25.52112,24.4270664 25.6419354,24.5293436 25.7527586,24.6424822 L25.7791018,24.6632997 L25.7809185,24.6732559 C26.237837,25.1457225 26.4876433,25.767532 26.4876433,26.4201151 C26.4876433,27.8121719 25.3476182,28.9471779 23.9505197,28.9471779 C23.3936787,28.9471779 22.8622726,28.7688715 22.4162548,28.4294558 L22.4035374,28.4294558 C20.0053969,26.4563195 18.015122,25.3158828 14.9493174,25.3158828 C10.2565925,25.3158828 5.19233749,29.0413091 5.19233749,35.0566598 C5.19233749,40.4311937 9.56803548,44.8101083 14.9493174,44.8101083 C19.4821662,44.8101083 21.6713778,42.3626951 24.9842635,38.6598965 C25.601058,37.9702038 26.2396537,37.2560733 26.9491036,36.4957822 C27.9501456,35.4232287 30.9014935,32.3693929 32.6655802,30.5455994 C33.1043309,30.0894247 33.4749526,29.707469 33.7329344,29.440462 C39.3794651,23.588936 41.1408266,21.7497556 41.1589944,21.7289381 L41.1744369,21.7090257 C43.9486494,18.5592484 44.6344813,14.540567 43.007561,10.9644835 C41.4088007,7.4499475 37.8715435,5.17903045 33.9981832,5.17903045 C28.4933608,5.17903045 25.2240776,9.33076283 24.4946432,13.2200138 L24.4719335,13.2354006 C24.1467311,14.3251512 23.1229795,15.0908729 21.9802292,15.0908729 C20.5467953,15.0908729 19.3822437,13.9296188 19.3822437,12.5004526 C19.3822437,12.2497375 19.4176708,12.0026429 19.4903417,11.7564534 L19.5057843,11.7039571 C20.1679981,8.5442236 21.8003687,5.82075233 24.3629271,3.6068571 C27.1271474,1.2128453 30.3682706,0 33.9981832,0 C38.159502,0 41.9111384,1.5459252 44.8434102,4.4648999 C46.3749499,5.99091271 47.5040744,7.74320264 48.208074,9.66474784 C48.7730904,11.2115781 49.0637741,12.8815032 49.0764915,14.6175012 C49.0973844,17.6079794 48.2752946,19.8119185 48.2643939,19.832736 L47.9764354,20.8401216 L49.0537818,20.6916839 C50.3355152,20.3260201 51.6735686,20.1413779 53.0270646,20.1413779 C56.8277539,20.1413779 60.5948329,21.6157996 63.3663202,24.1799718 C64.8079297,25.5159118 65.9388709,27.0980413 66.7282588,28.8765794 C67.5712416,30.7773071 68,32.8527208 68,35.0566598 C68,39.1015894 66.4757274,42.8478332 63.708782,45.6056986 C60.8727992,48.4368777 56.9258596,50 52.5964894,50 C50.6343744,50 48.7594646,49.5474458 46.8573032,48.6178994 Z" id="Fill-1"></path>
                    </g>
                </g>
            </g>
        </g>
    </g>
</svg>
