<?xml version="1.0" standalone="no"?><!DOCTYPE svg PUBLIC "-//W3C//DTD SVG 1.1//EN" "http://www.w3.org/Graphics/SVG/1.1/DTD/svg11.dtd"><svg t="1632733133004" class="icon" viewBox="0 0 1024 1024" version="1.1" xmlns="http://www.w3.org/2000/svg" p-id="712" width="8" height="8" xmlns:xlink="http://www.w3.org/1999/xlink"><defs><style type="text/css"></style></defs><path d="M563.456 447.808c39.744-18.432 78.336-37.056 114.624-55.36 36.288-18.56 65.344-32.256 86.784-40.832 21.504-8.384 38.72-12.864 51.776-12.864 21.504 0 40.064 7.04 55.808 21.76C888.192 374.848 896 393.088 896 414.528c0 12.288-3.904 25.216-11.584 38.4-7.616 13.248-15.872 21.76-24.448 25.472-79.488 31.232-167.104 54.208-262.528 68.416 17.344 15.744 38.592 37.184 63.872 63.552 25.28 26.752 38.592 40.832 39.616 42.624 9.344 12.864 22.208 28.928 38.848 48 16.64 19.2 28.16 34.048 34.624 44.864 6.464 10.944 9.728 23.808 9.728 39.232 0 19.712-7.36 37.056-22.208 51.776-14.656 14.848-33.92 22.272-57.344 22.272s-49.6-18.304-79.04-54.528c-29.248-36.224-67.072-101.696-113.28-195.968-46.784 84.864-78.336 141.12-94.208 168.256-16.064 26.88-31.488 47.424-46.208 61.376-14.848 13.824-31.68 20.864-50.88 20.864-22.784 0-41.792-7.808-57.024-23.552-14.784-15.744-22.528-32.704-22.528-50.432 0-16.64 3.008-29.248 9.216-37.76 56.704-76.992 115.776-144.192 177.536-200.576-51.776-8.128-97.92-17.152-138.56-26.88-40.704-10.048-83.968-24.32-129.472-43.52-7.488-3.776-14.656-12.288-21.76-25.472C131.456 437.888 128 425.6 128 414.528c0-21.44 7.808-39.616 23.552-54.016 15.744-14.656 33.728-21.76 54.144-21.76 14.848 0 33.216 4.48 55.488 13.376C283.264 361.152 311.424 374.016 345.6 390.912c34.24 16.96 73.28 35.904 116.992 56.896C454.592 408.96 447.936 364.352 442.688 314.304 437.44 264.064 434.88 229.696 434.88 211.136c0-22.784 7.232-42.176 21.632-58.688C471.168 136.128 489.6 128 512.448 128c22.4 0 40.512 8.128 55.04 24.448 14.592 16.512 21.76 38.144 21.76 65.28 0 7.36-1.216 21.952-3.328 43.968-1.92 21.952-5.248 48.32-9.152 79.36C572.736 372.16 568.256 407.872 563.456 447.808z" p-id="713" fill="#ff4d4f"></path></svg>